<svg xmlns="http://www.w3.org/2000/svg" viewBox="0 0 100 100">
  <defs>
    <linearGradient id="bgGradient" x1="0%" y1="0%" x2="100%" y2="100%">
      <stop offset="0%" style="stop-color:#5EAAA1;stop-opacity:1" />
      <stop offset="100%" style="stop-color:#4A9890;stop-opacity:1" />
    </linearGradient>
  </defs>
  <!-- Rounded square background -->
  <rect width="100" height="100" rx="20" ry="20" fill="url(#bgGradient)"/>
  <!-- Tooth outline - centered -->
  <path d="M50 18
           C38 18 28 24 25 34
           C22 44 23 52 25 62
           C27 72 30 80 34 86
           C36 89 40 89 42 85
           C44 81 46 76 48 72
           C49 70 51 70 52 72
           C54 76 56 81 58 85
           C60 89 64 89 66 86
           C70 80 73 72 75 62
           C77 52 78 44 75 34
           C72 24 62 18 50 18Z" 
        fill="none" 
        stroke="white" 
        stroke-width="4" 
        stroke-linecap="round" 
        stroke-linejoin="round"/>
</svg>
